<?xml version="1.0" encoding="utf-8"?>
<svg version="1.1" xmlns:xlink="http://www.w3.org/1999/xlink" width="10px" height="10px" xmlns="http://www.w3.org/2000/svg">
  <g transform="matrix(1 0 0 1 -334 -9 )">
    <path d="M 10 5.00005714285714  C 10 2.23861714285715  7.7614857142857 4.57142857044346E-05  5.00001142857144 4.57142857044346E-05  C 2.23872 4.57142857044346E-05  0 2.23861714285715  0 5.00005714285714  C 0 7.76142857142858  2.23872 9.99994285714286  5.00001142857144 9.99994285714286  C 7.7614857142857 9.99994285714286  10 7.76142857142858  10 5.00005714285714  Z M 7.91878857142859 3.32300571428573  C 8.01523428571431 3.41909714285714  8.01523428571431 3.57502857142856  7.91879999999998 3.67105142857142  L 4.39645714285712 7.1818057142857  C 4.34730285714284 7.23078857142858  4.28259428571431 7.25466285714285  4.21817142857145 7.2537142857143  C 4.15374857142859 7.25466285714285  4.08900571428569 7.23077714285714  4.03981714285715 7.1818057142857  L 2.31848000000002 5.46612571428571  C 2.22194285714284 5.37001142857142  2.22194285714284 5.21417142857143  2.31848000000002 5.118  C 2.41484571428572 5.02193142857143  2.57125714285712 5.02193142857143  2.66772571428572 5.118  L 4.21813714285713 6.66330285714287  L 7.56964571428574 3.32300571428573  C 7.66611428571429 3.22689142857143  7.82250285714287 3.22689142857143  7.91878857142859 3.32300571428573  Z " fill-rule="nonzero" fill="#67c23a" stroke="none" transform="matrix(1 0 0 1 334 9 )" />
  </g>
</svg>