<?xml version="1.0" encoding="utf-8"?>
<svg version="1.1" xmlns:xlink="http://www.w3.org/1999/xlink" width="6px" height="6px" xmlns="http://www.w3.org/2000/svg">
  <g transform="matrix(1 0 0 1 -336 -11 )">
    <path d="M 5.87091033673471 5.79696210459184  C 5.9629530765306 5.70491937244898  5.9629530765306 5.55550361479592  5.87091033673471 5.46346870408163  L 3.37115080867346 2.96370917602044  L 5.82248863775504 0.512324357142859  C 5.91497776530611 0.419819563775519  5.91497776530611 0.269949581632631  5.82248863775504 0.177452625000001  C 5.72999167346944 0.0849634974489675  5.58000422448981 0.0849634974489675  5.48761690561224 0.177452625000001  L 3.03627907653055 2.62882961479593  L 0.536488216836744 0.12903092602042  C 0.444453313775455 0.0369960229591868  0.29514719387754 0.0369960229591868  0.20311228316325 0.12903092602042  C 0.110967734693816 0.221065829081624  0.110967734693816 0.370473757653059  0.20311228316325 0.462516497449002  L 2.70285615306119 2.96226036734694  L 0.129379423469402 5.53576059183675  C 0.0369372857142594 5.62825755612243  0.0369372857142594 5.77811970153061  0.129379423469402 5.87061665816324  C 0.221876387755117 5.96312145153061  0.371809017857117 5.96312145153061  0.464305974489832 5.87061665816324  L 3.03773572193876 3.29714775765305  L 5.53755006887752 5.79696210459184  C 5.62958497193875 5.88899700765305  5.77876578826528 5.88899700765305  5.87091033673471 5.79696210459184  Z " fill-rule="nonzero" fill="#868686" stroke="none" transform="matrix(1 0 0 1 336 11 )" />
  </g>
</svg>