<?xml version="1.0" encoding="utf-8"?>
<svg version="1.1" xmlns:xlink="http://www.w3.org/1999/xlink" width="148px" height="38px" xmlns="http://www.w3.org/2000/svg">
  <g transform="matrix(1 0 0 1 -286 -342 )">
    <path d="M 287 346  A 3 3 0 0 1 290 343 L 430 343  A 3 3 0 0 1 433 346 L 433 376  A 3 3 0 0 1 430 379 L 290 379  A 3 3 0 0 1 287 376 L 287 346  Z " fill-rule="nonzero" fill="#ffffff" stroke="none" />
    <path d="M 286.5 346  A 3.5 3.5 0 0 1 290 342.5 L 430 342.5  A 3.5 3.5 0 0 1 433.5 346 L 433.5 376  A 3.5 3.5 0 0 1 430 379.5 L 290 379.5  A 3.5 3.5 0 0 1 286.5 376 L 286.5 346  Z " stroke-width="1" stroke="#000000" fill="none" stroke-opacity="0.149019607843137" />
  </g>
</svg>