<?xml version="1.0" encoding="utf-8"?>
<svg version="1.1" xmlns:xlink="http://www.w3.org/1999/xlink" width="14px" height="14px" xmlns="http://www.w3.org/2000/svg">
  <g transform="matrix(1 0 0 1 -25 -13 )">
    <path d="M 14 7  C 14 3.13317307692307  10.8668269230769 0  7 0  C 3.13317307692308 0  0 3.13317307692307  0 7  C 0 10.8668269230769  3.13317307692308 14  7 14  C 10.8668269230769 14  14 10.8668269230769  14 7  Z M 1.05336538461539 8.16105769230769  C 0.979326923076933 7.7841346153846  0.942307692307693 7.39375000000001  0.942307692307693 7  C 0.942307692307693 5.38125000000001  1.57163461538461 3.86009615384614  2.71586538461539 2.71586538461539  C 3.86009615384615 1.57163461538461  5.38124999999999 0.942307692307693  7 0.942307692307693  C 8.61875000000001 0.942307692307693  10.1399038461538 1.57163461538461  11.2841346153846 2.71586538461539  C 12.3677884615385 3.79951923076923  12.9903846153846 5.22307692307692  13.0543269230769 6.74423076923077  C 12.7581730769231 6.39759615384615  12.2399038461538 5.93653846153845  11.5802884615385 5.93653846153845  C 10.6548076923077 5.93653846153845  10.1769230769231 6.80144230769233  9.86394230769231 7.37355769230769  C 9.81682692307692 7.45769230769233  9.77307692307693 7.53846153846152  9.73269230769232 7.60913461538463  C 9.34903846153847 8.25528846153847  8.8139423076923 8.61874999999999  8.30240384615384 8.58173076923077  C 7.85144230769232 8.55144230769233  7.46778846153847 8.20480769230768  7.21875 7.61250000000001  C 6.90913461538461 6.86874999999999  6.23942307692309 6.07115384615385  5.43846153846155 5.95673076923077  C 5.05817307692308 5.90288461538462  4.49278846153847 5.98365384615386  3.93413461538461 6.67692307692306  C 3.82644230769232 6.81153846153845  3.70192307692307 6.99326923076924  3.56057692307692 7.20192307692308  C 3.21057692307692 7.72355769230769  2.67884615384615 8.5076923076923  2.27836538461539 8.57499999999999  C 1.69615384615385 8.66923076923077  1.23846153846154 8.32259615384616  1.05336538461539 8.16105769230769  Z " fill-rule="nonzero" fill="#409eff" stroke="none" transform="matrix(1 0 0 1 25 13 )" />
  </g>
</svg>