<?xml version="1.0" encoding="utf-8"?>
<svg version="1.1" xmlns:xlink="http://www.w3.org/1999/xlink" width="14px" height="13px" xmlns="http://www.w3.org/2000/svg">
  <g transform="matrix(1 0 0 1 -25 -14 )">
    <path d="M 0.0640243902439011 11.7378048780488  C 0.0640243902439011 12.3280297256098  0.540872713414629 12.8048780487805  1.1310975609756 12.8048780487805  L 12.8689024390244 12.8048780487805  C 13.4591272865854 12.8048780487805  13.9359756097561 12.3280297256098  13.9359756097561 11.7378048780488  L 13.9359756097561 5.33536585365854  L 0.0640243902439011 5.33536585365854  L 0.0640243902439011 11.7378048780488  Z M 13.9359756097561 3.20121951219512  C 13.9359756097561 2.61099466463415  13.4591272865854 2.13414634146342  12.8689024390244 2.13414634146342  L 12.6021341463415 2.13414634146342  L 12.6021341463415 1.86737804878049  C 12.6021341463415 1.72065548780488  12.4820884146341 1.60060975609755  12.3353658536585 1.60060975609755  L 11.2682926829268 1.60060975609755  C 11.1215701219512 1.60060975609755  11.0015243902439 1.72065548780488  11.0015243902439 1.86737804878049  L 11.0015243902439 2.13414634146342  L 10.0678353658537 2.13414634146342  L 10.0678353658537 1.0670731707317  C 10.0678353658537 0.480182926829272  9.5876524390244 0  9.00076219512195 0  L 4.99923780487805 0  C 4.4123475609756 0  3.93216463414635 0.480182926829272  3.93216463414635 1.0670731707317  L 3.93216463414635 2.13414634146342  L 2.9984756097561 2.13414634146342  L 2.9984756097561 1.86737804878049  C 2.9984756097561 1.72065548780488  2.87842987804878 1.60060975609755  2.73170731707317 1.60060975609755  L 1.66463414634147 1.60060975609755  C 1.51791158536585 1.60060975609755  1.39786585365853 1.72065548780488  1.39786585365853 1.86737804878049  L 1.39786585365853 2.13414634146342  L 1.1310975609756 2.13414634146342  C 0.540872713414629 2.13414634146342  0.0640243902439011 2.61099466463415  0.0640243902439011 3.20121951219512  L 0.0640243902439011 4.53506097560975  L 13.9359756097561 4.53506097560975  L 13.9359756097561 3.20121951219512  Z M 9.13414634146342 1.20045731707317  L 9.13414634146342 2.13414634146342  L 4.86585365853658 2.13414634146342  L 4.86585365853658 1.20045731707317  C 4.86585365853658 1.05373475609755  4.9858993902439 0.933689024390247  5.13262195121951 0.933689024390247  L 8.86737804878049 0.933689024390247  C 9.0141006097561 0.933689024390247  9.13414634146342 1.05373475609755  9.13414634146342 1.20045731707317  Z " fill-rule="nonzero" fill="#606266" stroke="none" transform="matrix(1 0 0 1 25 14 )" />
  </g>
</svg>