<?xml version="1.0" encoding="utf-8"?>
<svg version="1.1" xmlns:xlink="http://www.w3.org/1999/xlink" width="18px" height="12px" xmlns="http://www.w3.org/2000/svg">
  <g transform="matrix(1 0 0 1 -25 -14 )">
    <path d="M 4.3897372159091 7.6552734375  C 4.31383167613637 7.5673828125  4.36576704545455 7.02805397727272  4.36576704545455 7.02805397727272  C 4.36576704545455 7.02805397727272  5.32057883522727 6.99609375  5.7001065340909 6.65651633522725  C 5.08087713068182 5.71768465909091  5.41645951704545 4.623046875  5.28861860795455 3.60031960227272  C 5.16077769886363 2.58158735795456  4.58149857954545 1.97034801136365  3.4229403409091 1.97034801136365  L 3.40696022727273 1.97034801136365  C 2.28835227272727 1.97034801136365  1.68510298295455 2.57759232954544  1.55726207386363 3.60031960227272  C 1.42942116477273 4.61905184659091  1.78497869318182 5.83753551136363  1.14976917613637 6.65651633522725  C 1.529296875 7.00008877840907  2.48810369318182 6.98810369318181  2.48810369318182 6.98810369318181  C 2.48810369318182 6.98810369318181  2.52805397727273 7.56338778409091  2.4481534090909 7.65926846590907  C 2.3682528409091 7.75514914772725  2.13254616477273 7.84703480113635  1.96875 7.87899502840907  C 1.6171875 7.95490056818181  1.24564985795455 8.05877130681816  0.93403764204545 8.16663707386363  C 0.62242542613637 8.27450284090907  0.031161221590903 8.85378196022725  0.031161221590903 9.65278764204541  L 3.2391690340909 9.65278764204541  C 3.3270596590909 9.33318536931816  3.93030894886363 8.76189630681816  4.517578125 8.46226917613635  C 4.87713068181818 8.27849786931816  5.23268821022727 8.29048295454544  5.50435014204545 8.25452769886363  C 5.50435014204545 8.25452769886363  5.6561612215909 8.01482599431816  5.15678267045455 7.92294034090907  C 5.15678267045455 7.92294034090907  4.4696377840909 7.75115411931816  4.3897372159091 7.6552734375  Z M 13.6102627840909 7.6552734375  C 13.6861683238636 7.5673828125  13.6342329545455 7.02805397727272  13.6342329545455 7.02805397727272  C 13.6342329545455 7.02805397727272  12.6794211647727 6.99609375  12.2998934659091 6.65651633522725  C 12.9191228693182 5.71768465909091  12.5835404829545 4.623046875  12.7113813920455 3.60031960227272  C 12.8392223011364 2.58158735795456  13.4185014204545 1.97034801136365  14.5770596590909 1.97034801136365  L 14.5930397727273 1.97034801136365  C 15.7116477272727 1.97034801136365  16.3148970170455 2.57759232954544  16.4427379261364 3.60031960227272  C 16.5705788352273 4.61905184659091  16.2150213068182 5.83753551136363  16.8502308238636 6.65651633522725  C 16.470703125 7.00008877840907  15.5118963068182 6.98810369318181  15.5118963068182 6.98810369318181  C 15.5118963068182 6.98810369318181  15.4719460227273 7.56338778409091  15.5518465909091 7.65926846590907  C 15.6317471590909 7.75514914772725  15.8674538352273 7.84703480113635  16.03125 7.87899502840907  C 16.3828125 7.95490056818181  16.7543501420455 8.05877130681816  17.0659623579545 8.16663707386363  C 17.3775745738636 8.27450284090907  17.9688387784091 8.85378196022725  17.9688387784091 9.65278764204541  L 14.7608309659091 9.65278764204541  C 14.6729403409091 9.33318536931816  14.0696910511364 8.76189630681816  13.482421875 8.46226917613635  C 13.1228693181818 8.27849786931816  12.7673117897727 8.29048295454544  12.4956498579545 8.25452769886363  C 12.4956498579545 8.25452769886363  12.3438387784091 8.01482599431816  12.8432173295455 7.92294034090907  C 12.8432173295455 7.92294034090907  13.5303622159091 7.75115411931816  13.6102627840909 7.6552734375  Z M 14.5450994318182 11.6622869318182  C 14.5490944602273 9.86052911931816  13.1668146306818 9.13343394886363  12.7193714488636 8.97363281249997  C 12.2719282670455 8.81383167613635  11.5408380681818 8.80584161931816  11.2172407670455 8.68199573863635  C 10.9935191761364 8.59410511363635  10.6379616477273 8.49822443181816  10.5221058238636 8.3583984375  C 10.40625 8.21857244318181  10.40625 7.21981534090907  10.40625 7.21981534090907  C 10.40625 7.21981534090907  10.6859019886364 6.95614346590907  10.8017578125 6.66051136363635  C 10.9176136363636 6.36887428977272  10.9935191761364 5.56187855113635  10.9935191761364 5.56187855113635  C 10.9935191761364 5.56187855113635  11.2571910511364 5.67373934659091  11.3610617897727 5.14639559659091  C 11.4489524147727 4.69096235795456  11.6167436079545 4.45126065340907  11.5727982954545 4.11567826704544  C 11.5248579545455 3.78009588068181  11.3410866477273 3.8599964488636  11.3410866477273 3.8599964488636  C 11.3410866477273 3.8599964488636  11.5727982954545 3.52041903409091  11.5727982954545 2.3658558238636  C 11.5727982954545 1.17533735795456  10.6739169034091 0.00479403409090651  8.99200994318183 0.00479403409090651  C 7.31409801136363 0.00479403409090651  6.4072265625 1.17933238636365  6.4072265625 2.3658558238636  C 6.4072265625 3.52041903409091  6.63494318181818 3.8599964488636  6.63494318181818 3.8599964488636  C 6.63494318181818 3.8599964488636  6.4471768465909 3.78009588068181  6.4032315340909 4.11567826704544  C 6.35529119318182 4.45126065340907  6.52308238636363 4.69096235795456  6.61496803977273 5.14639559659091  C 6.7188387784091 5.677734375  6.9825106534091 5.56187855113635  6.9825106534091 5.56187855113635  C 6.9825106534091 5.56187855113635  7.05841619318183 6.36487926136363  7.17427201704545 6.66051136363635  C 7.29012784090909 6.95614346590907  7.56977982954545 7.21981534090907  7.56977982954545 7.21981534090907  C 7.56977982954545 7.21981534090907  7.56977982954545 8.21857244318181  7.45392400568183 8.3583984375  C 7.33806818181817 8.49822443181816  6.9825106534091 8.59410511363635  6.7587890625 8.67800071022725  C 6.43918678977273 8.80184659090907  5.7080965909091 8.81782670454541  5.25665838068182 8.97762784090907  C 4.80921519886363 9.13742897727272  3.42693536931818 9.86452414772725  3.42693536931818 11.6622869318182  L 14.5450994318182 11.6622869318182  Z " fill-rule="nonzero" fill="#606266" stroke="none" transform="matrix(1 0 0 1 25 14 )" />
  </g>
</svg>