<?xml version="1.0" encoding="utf-8"?>
<svg version="1.1" xmlns:xlink="http://www.w3.org/1999/xlink" width="13px" height="14px" xmlns="http://www.w3.org/2000/svg">
  <g transform="matrix(1 0 0 1 -25 -14 )">
    <path d="M 12.2875 3.00937500000001  C 12.46875 2.91562500000001  12.4625 2.63124999999999  12.275 2.546875  L 6.67812500000002 0.0374999999999943  C 6.56562500000001 -0.0124999999999886  6.4375 -0.0124999999999886  6.32499999999999 0.0374999999999943  L 0.725000000000023 2.546875  C 0.537500000000023 2.63124999999999  0.53125 2.91562500000001  0.712499999999977 3.00937500000001  L 6.296875 5.94999999999999  C 6.42500000000001 6.01875000000001  6.57499999999999 6.01875000000001  6.703125 5.94999999999999  L 12.2875 3.00937500000001  Z M 6.90312499999999 12.75  C 6.90625 12.94375  7.10312499999998 13.0625  7.25625000000002 12.965625  L 12.884375 9.98750000000001  C 12.953125 9.94374999999999  12.996875 9.86250000000001  12.996875 9.77500000000001  L 12.996875 3.99687499999999  C 12.996875 3.8125  12.815625 3.69374999999999  12.6625 3.77500000000001  L 7.03437500000001 6.67500000000001  C 6.953125 6.71562499999999  6.90312499999999 6.80312499999999  6.90312499999999 6.89687499999999  L 6.90312499999999 12.75  Z M 0.334375000000023 3.77500000000001  C 0.181249999999977 3.69374999999999  0 3.81562500000001  0 3.99687499999999  L 0 9.77187499999999  C 0 9.859375  0.0437499999999886 9.94062500000001  0.112500000000011 9.984375  L 5.74062500000002 12.9625  C 5.89687500000002 13.0625  6.09062499999999 12.94375  6.09062499999999 12.75  L 6.09062499999999 6.89687499999999  C 6.09062499999999 6.80312499999999  6.04062499999998 6.71562499999999  5.95937500000002 6.67500000000001  L 0.334375000000023 3.77500000000001  Z " fill-rule="nonzero" fill="#606266" stroke="none" transform="matrix(1 0 0 1 25 14 )" />
  </g>
</svg>