<?xml version="1.0" encoding="utf-8"?>
<svg version="1.1" xmlns:xlink="http://www.w3.org/1999/xlink" width="12px" height="13px" xmlns="http://www.w3.org/2000/svg">
  <g transform="matrix(1 0 0 1 -25 -14 )">
    <path d="M 11.9347584 2.0476032  C 11.9348352 0.976704000000012  11.047872 0.10517759999999  9.9581568 0.10517759999999  L 2.05136640000001 0.10517759999999  C 0.961267199999995 0.10517759999999  0.0746879999999948 0.976704000000012  0.0746879999999948 2.0476032  L 0.0746879999999948 11.0116992  C 0.0746879999999948 12.0825216  0.961190400000007 12.9541248  2.05136640000001 12.9541248  L 9.95808 12.9541248  C 11.0477952 12.9541248  11.9347584 12.0825216  11.9347584 11.0116992  L 11.9347584 2.0476032  Z M 2.4008832 3.65656319999999  C 2.4008832 3.40857599999998  2.6050176 3.20828159999999  2.85692159999999 3.20828159999999  L 6.2654592 3.20828159999999  C 6.51736320000001 3.20828159999999  6.72149759999999 3.40857599999998  6.72149759999999 3.65656319999999  C 6.72149759999999 3.90362880000001  6.51736320000001 4.1044608  6.2654592 4.1044608  L 2.85692159999999 4.1044608  C 2.6050944 4.1044608  2.4008832 3.9037056  2.4008832 3.65656319999999  Z M 9.76285439999999 9.55672319999999  C 9.76285439999999 9.80432639999998  9.55818240000001 10.0050816  9.30620159999999 10.0050816  L 2.85692159999999 10.0050816  C 2.6050944 10.0050816  2.4008832 9.80432639999998  2.4008832 9.55672319999999  C 2.4008832 9.3091968  2.6050176 9.10836479999998  2.85692159999999 9.10836479999998  L 9.3062784 9.10836479999998  C 9.55818239999999 9.10836479999998  9.76285439999999 9.3091968  9.76285439999999 9.55672319999999  Z M 9.76285439999999 6.6066816  C 9.76285439999999 6.85428479999999  9.55818240000001 7.05496319999997  9.30620159999999 7.05496319999997  L 2.85692159999999 7.05496319999997  C 2.6050944 7.05496319999997  2.4008832 6.85428479999999  2.4008832 6.6066816  C 2.4008832 6.35907839999999  2.6050176 6.15832319999998  2.85692159999999 6.15832319999998  L 9.3062784 6.15832319999998  C 9.55818239999999 6.15832319999998  9.76285439999999 6.35907839999999  9.76285439999999 6.6066816  Z " fill-rule="nonzero" fill="#606266" stroke="none" transform="matrix(1 0 0 1 25 14 )" />
  </g>
</svg>