<?xml version="1.0" encoding="utf-8"?>
<svg version="1.1" xmlns:xlink="http://www.w3.org/1999/xlink" width="10px" height="6px" xmlns="http://www.w3.org/2000/svg">
  <g transform="matrix(1 0 0 1 -87 -868 )">
    <path d="M 0.719796959578204 0.0619383976567178  L 4.99114130052724 0.04859988283539  L 9.28483177504393 0.0874272273696306  C 9.54583618629174 0.0874272273696306  9.77527403632104 0.101890060597555  9.85150793790275 0.161657833204458  C 10.0355672290568 0.305953962366743  10.0154544581137 0.600678870908041  9.85150793790275 0.7678191083304  L 5.30681951962507 5.86360352393672  C 5.22019234915056 5.95269304164032  5.10456886350322 5.99077934490919  4.99079194493263 5.98505554483887  C 4.87699007029877 5.99079212241361  4.76172841241945 5.95269304164032  4.67472693028705 5.86360352393672  L 0.130051001757472 0.76783189783248  C -0.033521247803165 0.600691642413608  -0.0513757000585855 0.308662559343873  0.130051001757472 0.162066677352072  C 0.214457270064443 0.0939048342120827  0.361360369068542 0.0619383976567178  0.719796959578204 0.0619383976567178  Z " fill-rule="nonzero" fill="#868686" stroke="none" transform="matrix(1 0 0 1 87 868 )" />
  </g>
</svg>