<?xml version="1.0" encoding="utf-8"?>
<svg version="1.1" xmlns:xlink="http://www.w3.org/1999/xlink" width="15px" height="15px" xmlns="http://www.w3.org/2000/svg">
  <g transform="matrix(1 0 0 1 -445 -25 )">
    <path d="M 14.8164857142857 13.9310571428572  L 8.42837142857138 7.54285714285715  L 14.8164857142857 1.15457142857143  C 15.0611142857143 0.91002857142858  15.0611142857143 0.513600000000004  14.8164857142857 0.26905714285714  C 14.5718571428572 0.024514285714293  14.1754285714286 0.024514285714293  13.9310571428572 0.26905714285714  L 7.5428571428572 6.65734285714288  L 1.15457142857144 0.26905714285714  C 1.03714493329153 0.151630647577189  0.877880427921127 0.0856611294481588  0.71181428571424 0.0856611294481588  C 0.365999446450019 0.0856611294481588  0.0856611294481127 0.365999446450086  0.0856611294481127 0.711814285714294  C 0.0856611294481127 0.877880427921149  0.151630647577122 1.03714493329148  0.26905714285715 1.15457142857143  L 6.65734285714291 7.54285714285715  L 0.26905714285715 13.9310571428572  C 0.151633338200668 14.0484676669848  0.0856642151189817 14.2077184819672  0.0856642151189817 14.3737714285714  C 0.0856642151189817 14.5398243751756  0.151633338200668 14.699075190158  0.26905714285715 14.8164857142857  C 0.386459989698324 14.9339567579934  0.545733357982726 14.9999570390868  0.71181428571424 14.9999570390868  C 0.877895213445868 14.9999570390868  1.03716858173027 14.9339567579934  1.15457142857144 14.8164857142857  L 7.5428571428572 8.42837142857141  L 13.9310571428572 14.8164857142857  C 14.0484453538411 14.9339515489585  14.2077045312276 14.9999496969946  14.3737714285714 14.9999496969946  C 14.5398383259152 14.9999496969946  14.6990975033017 14.9339515489585  14.8164857142857 14.8164857142857  C 14.9339515489585 14.6990975033017  14.9999496969946 14.5398383259152  14.9999496969946 14.3737714285714  C 14.9999496969946 14.2077045312276  14.9339515489585 14.0484453538411  14.8164857142857 13.9310571428572  Z " fill-rule="nonzero" fill="#606266" stroke="none" transform="matrix(1 0 0 1 445 25 )" />
  </g>
</svg>