<?xml version="1.0" encoding="utf-8"?>
<svg version="1.1" xmlns:xlink="http://www.w3.org/1999/xlink" width="12px" height="12px" xmlns="http://www.w3.org/2000/svg">
  <g transform="matrix(1 0 0 1 -161 -204 )">
    <path d="M 167 206  C 169.24 206  171 207.76  171 210  C 171 212.24  169.24 214  167 214  C 164.76 214  163 212.24  163 210  C 163 207.76  164.76 206  167 206  Z " fill-rule="nonzero" fill="#ffffff" stroke="none" />
    <path d="M 167 205.5  C 169.52 205.5  171.5 207.48  171.5 210  C 171.5 212.52  169.52 214.5  167 214.5  C 164.48 214.5  162.5 212.52  162.5 210  C 162.5 207.48  164.48 205.5  167 205.5  Z " stroke-width="3" stroke="#409eff" fill="none" />
  </g>
</svg>