<?xml version="1.0" encoding="utf-8"?>
<svg version="1.1" xmlns:xlink="http://www.w3.org/1999/xlink" width="18px" height="18px" xmlns="http://www.w3.org/2000/svg">
  <g transform="matrix(1 0 0 1 -83 -56 )">
    <path d="M 17.8555235328946 2.50441204720983  C 17.8555235328946 2.18084537008917  17.5842396710526 1.91852356439733  17.2496185460526 1.91852356439733  L 15.330980013158 2  L 2.66901998684205 2  L 0.750361263157856 1.91852356439733  C 0.415740138157844 1.91852356439733  0.144456276315736 2.18084537008917  0.144456276315736 2.50441204720983  C 0.144456276315736 2.82797872433036  0.415740138157844 3.09030053002232  0.750361263157856 3.09030053002232  L 2 3.09030053002232  L 2 16.4869726720983  C 2.06311500000004 16.8105393492187  2.33439886184215 17.0728611549109  2.66901998684205 17  L 15.330980013158 17  C 15.6656011381579 17.0728611549109  15.936885 16.8105393492187  16 16.4869726720983  L 16 3.09030053002232  L 17.2496185460526 3.09030053002232  C 17.5842396710526 3.09030053002232  17.8555235328946 2.82797872433036  17.8555235328946 2.50441204720983  Z M 14.7250750263159 3  L 14.7250750263159 16  L 3.27492497368405 16  L 3.27492497368405 3  L 14.7250750263159 3  Z M 6.04633436842119 0.600059668861604  C 6.04633436842119 0.923626345982143  6.31759803947375 1.18594813258926  6.65223935526319 1.18594813258926  L 11.3477606250001 1.18594813258926  C 11.68238175 1.18594813258926  11.9536656118421 0.92362632689742  11.9536656118421 0.600059649776767  C 11.9536656118421 0.276492972656229  11.68238175 0.0141711669642746  11.3477606250001 0.0141711669642746  L 6.65223935526319 0.0141711860491114  C 6.31761823026318 0.0141711860491114  6.04633436842119 0.276492991740952  6.04633436842119 0.600059668861604  Z M 5.89837237500001 12.6318264529018  C 5.89837237500001 12.9553931491072  6.16965623684212 13.2177149547991  6.50427736184201 13.2177149547991  C 6.83889848684214 13.2177149547991  7.11018234868425 12.9553931491072  7.11018234868425 12.6318264719866  L 7.11018234868425 6.63264087689731  C 7.11018234868425 6.30907419977677  6.83889848684214 6.04675239408471  6.50427736184201 6.04675239408471  C 6.16965623684212 6.04675239408471  5.89837237500001 6.30907419977677  5.89837237500001 6.63264087689731  L 5.89837237500001 12.6318264529018  Z M 10.9165784605264 12.6318264529018  C 10.9165784605264 12.9553931491072  11.1878623223685 13.2177149547991  11.5224834473684 13.2177149547991  C 11.8571045723684 13.2177149547991  12.1283884342106 12.9553931491072  12.1283884342106 12.6318264719866  L 12.1283884342106 6.63264087689731  C 12.1283884342106 6.30907419977677  11.8571045723684 6.04675239408471  11.5224834473684 6.04675239408471  C 11.1878623223685 6.04675239408471  10.9165784605264 6.30907419977677  10.9165784605264 6.63264087689731  L 10.9165784605264 12.6318264529018  Z " fill-rule="nonzero" fill="#ffffff" stroke="none" transform="matrix(1 0 0 1 83 56 )" />
  </g>
</svg>