<?xml version="1.0" encoding="utf-8"?>
<svg version="1.1" xmlns:xlink="http://www.w3.org/1999/xlink" width="18px" height="18px" xmlns="http://www.w3.org/2000/svg">
  <g transform="matrix(1 0 0 1 -31 -56 )">
    <path d="M 10.9384615384615 7.53176470588235  C 10.9384615384615 7.24941176470588  10.7169230769231 6.96705882352941  10.3846153846154 6.96705882352941  L 8.16923076923077 6.96705882352941  L 8.16923076923077 4.70823529411764  C 8.16923076923077 4.36941176470589  7.94769230769231 4.1435294117647  7.61538461538461 4.1435294117647  C 7.28307692307692 4.1435294117647  7.06153846153846 4.36941176470589  7.06153846153846 4.70823529411764  L 7.06153846153846 6.96705882352941  L 4.84615384615385 6.96705882352941  C 4.51384615384615 6.96705882352941  4.29230769230769 7.08  4.29230769230769 7.36235294117647  C 4.29230769230769 7.70117647058824  4.51384615384615 8.09647058823529  4.84615384615385 8.09647058823529  L 7.06153846153846 8.09647058823529  L 7.06153846153846 10.3552941176471  C 7.06153846153846 10.6941176470588  7.28307692307692 10.92  7.61538461538461 10.92  C 7.94769230769231 10.92  8.16923076923077 10.6941176470588  8.16923076923077 10.3552941176471  L 8.16923076923077 8.09647058823529  L 10.3846153846154 8.09647058823529  C 10.7169230769231 8.09647058823529  10.9384615384615 7.87058823529412  10.9384615384615 7.53176470588235  Z M 17.7507692307692 17.8094117647059  C 17.9169230769231 17.64  17.9169230769231 17.3011764705882  17.6953846153846 17.0752941176471  L 13.0984615384615 12.5011764705882  C 14.3169230769231 11.1458823529412  15.0369230769231 9.39529411764705  15.0369230769231 7.47529411764705  C 15.0369230769231 3.35294117647058  11.7138461538462 0.0211764705882302  7.56 0.0211764705882302  C 3.46153846153846 -0.0352941176470551  0.138461538461538 3.29647058823529  0.138461538461538 7.41882352941177  C 0.138461538461538 11.5411764705882  3.46153846153846 14.8729411764706  7.61538461538461 14.8729411764706  C 9.3876923076923 14.8729411764706  11.0492307692308 14.2517647058824  12.3230769230769 13.1788235294118  L 16.92 17.8094117647059  C 17.1415384615385 18.0352941176471  17.5292307692308 18.0352941176471  17.7507692307692 17.8094117647059  Z M 13.9292307692308 7.41882352941177  C 13.9292307692308 10.92  11.1046153846154 13.8  7.61538461538461 13.8  C 4.12615384615385 13.8  1.30153846153846 10.9764705882353  1.30153846153846 7.47529411764705  C 1.30153846153846 3.97411764705882  4.12615384615385 1.09411764705882  7.61538461538461 1.09411764705882  C 11.1046153846154 1.09411764705882  13.9292307692308 3.91764705882353  13.9292307692308 7.41882352941177  Z " fill-rule="nonzero" fill="#ffffff" stroke="none" transform="matrix(1 0 0 1 31 56 )" />
  </g>
</svg>