<?xml version="1.0" encoding="utf-8"?>
<svg version="1.1" xmlns:xlink="http://www.w3.org/1999/xlink" width="14px" height="14px" xmlns="http://www.w3.org/2000/svg">
  <g transform="matrix(1 0 0 1 -595 -205 )">
    <path d="M 12.9659090909091 5  L 1.03409090909093 5  L 1.03409090909093 13  L 13 13  L 13 2.02840909090907  L 10.9772727272727 2.02840909090907  L 10.9772727272727 2.52556818181819  C 10.9772727272727 2.67073863636358  10.9307054924242 2.78989109848487  10.8375710227273 2.88302556818184  C 10.7444365530304 2.9761600378788  10.6252840909091 3.02272727272725  10.4801136363637 3.02272727272725  C 10.3349431818182 3.02272727272725  10.215790719697 2.9761600378788  10.12265625 2.88302556818184  C 10.029521780303 2.78989109848487  9.9829545454545 2.67073863636358  9.9829545454545 2.52556818181819  L 9.9829545454545 2.02840909090907  L 4.0170454545455 2.02840909090907  L 4.0170454545455 2.52556818181819  C 4.0170454545455 2.67073863636358  3.97047821969699 2.78989109848487  3.87734375000002 2.88302556818184  C 3.784209280303 2.9761600378788  3.66505681818182 3.02272727272725  3.51988636363632 3.02272727272725  C 3.37471590909092 3.02272727272725  3.25556344696963 2.9761600378788  3.16242897727273 2.88302556818184  C 3.06929450757576 2.78989109848487  3.02272727272725 2.67073863636358  3.02272727272725 2.52556818181819  L 3.02272727272725 2.02840909090907  L 1.03409090909093 2.02840909090907  L 1.03409090909093 4  L 12.9659090909091 4  L 12.9659090909091 5  Z M 4.0170454545455 0.536931818181813  L 4.0170454545455 1.03409090909093  L 9.9829545454545 1.03409090909093  L 9.9829545454545 0.536931818181813  C 9.9829545454545 0.391761363636419  10.029521780303 0.272608901515127  10.12265625 0.179474431818164  C 10.215790719697 0.0863399621212011  10.3349431818182 0.0397727272727479  10.4801136363637 0.0397727272727479  C 10.6252840909091 0.0397727272727479  10.7444365530304 0.0863399621212011  10.8375710227273 0.179474431818164  C 10.9307054924242 0.272608901515127  10.9772727272727 0.391761363636419  10.9772727272727 0.536931818181813  L 10.9772727272727 1.03409090909093  L 13.4630681818182 1.03409090909093  C 13.6082386363636 1.03409090909093  13.7273910984849 1.08065814393944  13.8205255681818 1.17379261363635  C 13.9136600378788 1.26692708333331  13.9602272727273 1.38607954545449  14 1.53125  L 14 13.4630681818182  C 13.9602272727273 13.6082386363636  13.9136600378788 13.7273910984849  13.8205255681818 13.8205255681818  C 13.7273910984849 13.9136600378788  13.6082386363636 13.9602272727273  13.4630681818182 14  L 0.536931818181813 14  C 0.391761363636419 13.9602272727273  0.272608901515127 13.9136600378788  0.179474431818164 13.8205255681818  C 0.0863399621212011 13.7273910984849  0.0397727272727479 13.6082386363636  0 13.4630681818182  L 0 1.53125  C 0.0397727272727479 1.38607954545449  0.0863399621212011 1.26692708333331  0.179474431818164 1.17379261363635  C 0.272608901515127 1.08065814393944  0.391761363636419 1.03409090909093  0.536931818181813 1.03409090909093  L 3.02272727272725 1.03409090909093  L 3.02272727272725 0.536931818181813  C 3.02272727272725 0.391761363636419  3.06929450757576 0.272608901515127  3.16242897727273 0.179474431818164  C 3.25556344696963 0.0863399621212011  3.37471590909092 0.0397727272727479  3.51988636363632 0.0397727272727479  C 3.66505681818182 0.0397727272727479  3.784209280303 0.0863399621212011  3.87734375000002 0.179474431818164  C 3.97047821969699 0.272608901515127  4.0170454545455 0.391761363636419  4.0170454545455 0.536931818181813  Z M 3.16242897727273 7.13970170454542  C 3.25556344696963 7.04656723484845  3.37471590909092 7  3.51988636363632 7  L 4.5142045454545 7  C 4.65937500000001 7  4.77852746212119 7.04656723484845  4.87166193181815 7.13970170454542  C 4.96479640151512 7.23283617424238  5.01136363636368 7.35198863636367  5.01136363636368 7.49715909090907  C 5.01136363636368 7.64232954545457  4.96479640151512 7.76148200757575  4.87166193181815 7.85461647727266  C 4.77852746212119 7.94775094696973  4.65937500000001 7.99431818181819  4.5142045454545 7.99431818181819  L 3.51988636363632 7.99431818181819  C 3.37471590909092 7.99431818181819  3.25556344696963 7.94775094696973  3.16242897727273 7.85461647727266  C 3.06929450757576 7.76148200757575  3.02272727272725 7.64232954545457  3.02272727272725 7.49715909090907  C 3.02272727272725 7.35198863636367  3.06929450757576 7.23283617424238  3.16242897727273 7.13970170454542  Z M 3.16242897727273 10.12265625  C 3.25556344696963 10.029521780303  3.37471590909092 9.9829545454545  3.51988636363632 9.9829545454545  L 4.5142045454545 9.9829545454545  C 4.65937500000001 9.9829545454545  4.77852746212119 10.029521780303  4.87166193181815 10.12265625  C 4.96479640151512 10.215790719697  5.01136363636368 10.3349431818182  5.01136363636368 10.4801136363637  C 5.01136363636368 10.6252840909091  4.96479640151512 10.7444365530304  4.87166193181815 10.8375710227273  C 4.77852746212119 10.9307054924242  4.65937500000001 10.9772727272727  4.5142045454545 10.9772727272727  L 3.51988636363632 10.9772727272727  C 3.37471590909092 10.9772727272727  3.25556344696963 10.9307054924242  3.16242897727273 10.8375710227273  C 3.06929450757576 10.7444365530304  3.02272727272725 10.6252840909091  3.02272727272725 10.4801136363637  C 3.02272727272725 10.3349431818182  3.06929450757576 10.215790719697  3.16242897727273 10.12265625  Z M 6.14538352272734 7.13970170454542  C 6.23851799242425 7.04656723484845  6.35767045454543 7  6.50284090909093 7  L 7.49715909090907 7  C 7.64232954545457 7  7.76148200757575 7.04656723484845  7.85461647727266 7.13970170454542  C 7.94775094696973 7.23283617424238  7.99431818181819 7.35198863636367  7.99431818181819 7.49715909090907  C 7.99431818181819 7.64232954545457  7.94775094696973 7.76148200757575  7.85461647727266 7.85461647727266  C 7.76148200757575 7.94775094696973  7.64232954545457 7.99431818181819  7.49715909090907 7.99431818181819  L 6.50284090909093 7.99431818181819  C 6.35767045454543 7.99431818181819  6.23851799242425 7.94775094696973  6.14538352272734 7.85461647727266  C 6.05224905303027 7.76148200757575  6.00568181818181 7.64232954545457  6.00568181818181 7.49715909090907  C 6.00568181818181 7.35198863636367  6.05224905303027 7.23283617424238  6.14538352272734 7.13970170454542  Z M 6.14538352272734 10.12265625  C 6.23851799242425 10.029521780303  6.35767045454543 9.9829545454545  6.50284090909093 9.9829545454545  L 7.49715909090907 9.9829545454545  C 7.64232954545457 9.9829545454545  7.76148200757575 10.029521780303  7.85461647727266 10.12265625  C 7.94775094696973 10.215790719697  7.99431818181819 10.3349431818182  7.99431818181819 10.4801136363637  C 7.99431818181819 10.6252840909091  7.94775094696973 10.7444365530304  7.85461647727266 10.8375710227273  C 7.76148200757575 10.9307054924242  7.64232954545457 10.9772727272727  7.49715909090907 10.9772727272727  L 6.50284090909093 10.9772727272727  C 6.35767045454543 10.9772727272727  6.23851799242425 10.9307054924242  6.14538352272734 10.8375710227273  C 6.05224905303027 10.7444365530304  6.00568181818181 10.6252840909091  6.00568181818181 10.4801136363637  C 6.00568181818181 10.3349431818182  6.05224905303027 10.215790719697  6.14538352272734 10.12265625  Z M 9.12833806818185 7.13970170454542  C 9.22147253787881 7.04656723484845  9.34062499999999 7  9.4857954545455 7  L 10.4801136363637 7  C 10.6252840909091 7  10.7444365530304 7.04656723484845  10.8375710227273 7.13970170454542  C 10.9307054924242 7.23283617424238  10.9772727272727 7.35198863636367  10.9772727272727 7.49715909090907  C 10.9772727272727 7.64232954545457  10.9307054924242 7.76148200757575  10.8375710227273 7.85461647727266  C 10.7444365530304 7.94775094696973  10.6252840909091 7.99431818181819  10.4801136363637 7.99431818181819  L 9.4857954545455 7.99431818181819  C 9.34062499999999 7.99431818181819  9.22147253787881 7.94775094696973  9.12833806818185 7.85461647727266  C 9.03520359848488 7.76148200757575  8.98863636363632 7.64232954545457  8.98863636363632 7.49715909090907  C 8.98863636363632 7.35198863636367  9.03520359848488 7.23283617424238  9.12833806818185 7.13970170454542  Z M 9.12833806818185 10.12265625  C 9.22147253787881 10.029521780303  9.34062499999999 9.9829545454545  9.4857954545455 9.9829545454545  L 10.4801136363637 9.9829545454545  C 10.6252840909091 9.9829545454545  10.7444365530304 10.029521780303  10.8375710227273 10.12265625  C 10.9307054924242 10.215790719697  10.9772727272727 10.3349431818182  10.9772727272727 10.4801136363637  C 10.9772727272727 10.6252840909091  10.9307054924242 10.7444365530304  10.8375710227273 10.8375710227273  C 10.7444365530304 10.9307054924242  10.6252840909091 10.9772727272727  10.4801136363637 10.9772727272727  L 9.4857954545455 10.9772727272727  C 9.34062499999999 10.9772727272727  9.22147253787881 10.9307054924242  9.12833806818185 10.8375710227273  C 9.03520359848488 10.7444365530304  8.98863636363632 10.6252840909091  8.98863636363632 10.4801136363637  C 8.98863636363632 10.3349431818182  9.03520359848488 10.215790719697  9.12833806818185 10.12265625  Z " fill-rule="nonzero" fill="#c0c4cc" stroke="none" transform="matrix(1 0 0 1 595 205 )" />
  </g>
</svg>