<?xml version="1.0" encoding="utf-8"?>
<svg version="1.1" xmlns:xlink="http://www.w3.org/1999/xlink" width="8px" height="9px" xmlns="http://www.w3.org/2000/svg">
  <g transform="matrix(1 0 0 1 -21 -22 )">
    <path d="M 0.166796874999999 4.23493150684931  L 4.207421875 0.12945205479452  C 4.28059895833334 0.0652397260274  4.366015625 0.0331335616438366  4.463671875 0.0331335616438366  C 4.561328125 0.0331335616438366  4.64674479166666 0.0692208904109606  4.719921875 0.141395547945208  C 4.79309895833333 0.213570205479449  4.8296875 0.297816780821918  4.8296875 0.394135273972601  C 4.8296875 0.490453767123284  4.79309895833333 0.574700342465754  4.719921875 0.646875000000001  L 0.911328124999997 4.4996147260274  L 4.719921875 8.3523544520548  C 4.79309895833333 8.42452910958905  4.8296875 8.51083047945205  4.8296875 8.61125856164384  C 4.8296875 8.71168664383562  4.79309895833333 8.79593321917808  4.719921875 8.86399828767124  C 4.64674479166666 8.93206335616438  4.561328125 8.96622431506849  4.463671875 8.96648116438356  C 4.366015625 8.96673801369863  4.28059895833334 8.93463184931507  4.207421875 8.87016267123288  L 0.166796874999999 4.76468321917808  C 0.0936197916666686 4.68428938356165  0.0570312500000014 4.59400684931507  0.0570312500000014 4.49383561643835  C 0.0570312500000014 4.39366438356164  0.0936197916666686 4.30736301369863  0.166796874999999 4.23493150684931  Z M 3.291796875 4.23493150684931  L 7.33242187499999 0.12945205479452  C 7.40559895833334 0.0652397260274  7.491015625 0.0331335616438366  7.588671875 0.0331335616438366  C 7.686328125 0.0331335616438366  7.77174479166666 0.0692208904109606  7.844921875 0.141395547945208  C 7.91809895833333 0.213570205479449  7.95468750000001 0.297816780821918  7.9546875 0.394135273972601  C 7.95468750000001 0.490453767123284  7.91809895833333 0.574700342465754  7.844921875 0.646875000000001  L 4.036328125 4.4996147260274  L 7.844921875 8.3523544520548  C 7.91809895833333 8.42452910958905  7.95468750000001 8.51083047945205  7.9546875 8.61125856164384  C 7.95468750000001 8.71168664383562  7.91809895833333 8.79593321917808  7.844921875 8.86399828767124  C 7.77174479166666 8.93206335616438  7.686328125 8.96622431506849  7.588671875 8.96648116438356  C 7.491015625 8.96673801369863  7.40559895833334 8.93463184931507  7.33242187499999 8.87016267123288  L 3.291796875 4.76468321917808  C 3.21861979166667 4.68428938356165  3.18203125 4.59400684931507  3.18203125 4.49383561643835  C 3.18203125 4.39366438356164  3.21861979166667 4.30736301369863  3.291796875 4.23493150684931  Z " fill-rule="nonzero" fill="#606266" stroke="none" transform="matrix(1 0 0 1 21 22 )" />
  </g>
</svg>