<?xml version="1.0" encoding="utf-8"?>
<svg version="1.1" xmlns:xlink="http://www.w3.org/1999/xlink" width="5px" height="8px" xmlns="http://www.w3.org/2000/svg">
  <g transform="matrix(1 0 0 1 -46 -22 )">
    <path d="M 3.6681506849315 0.115068493150687  L 0.125684931506839 3.76438356164384  C 0.0615296803652825 3.82853881278538  0.0294520547945183 3.90525114155251  0.0294520547945183 3.9945205479452  C 0.0294520547945183 4.0837899543379  0.0615296803652825 4.16404109589041  0.125684931506839 4.23527397260274  L 3.6681506849315 7.88458904109589  C 3.73230593607306 7.94166666666666  3.80719178082191 7.97020547945206  3.89280821917808 7.97020547945206  C 3.97842465753425 7.97020547945206  4.0533105022831 7.93812785388128  4.11746575342465 7.87397260273973  C 4.18162100456621 7.80981735159818  4.21369863013697 7.73493150684932  4.21369863013697 7.64931506849315  C 4.21369863013697 7.56369863013698  4.18162100456621 7.48881278538813  4.11746575342465 7.42465753424658  L 0.778424657534231 4  L 4.11746575342465 0.575342465753423  C 4.18162100456621 0.51118721461188  4.21369863013697 0.436301369863017  4.21369863013697 0.350684931506848  C 4.21369863013697 0.265068493150693  4.18162100456621 0.19018264840183  4.11746575342465 0.126027397260273  C 4.0533105022831 0.0618721461187306  3.97842465753425 0.0297945205479522  3.89280821917808 0.0297945205479522  C 3.80719178082191 0.0297945205479522  3.73230593607306 0.0583333333333371  3.6681506849315 0.115410958904107  Z " fill-rule="nonzero" fill="#606266" stroke="none" transform="matrix(1 0 0 1 46 22 )" />
  </g>
</svg>