<?xml version="1.0" encoding="utf-8"?>
<svg version="1.1" xmlns:xlink="http://www.w3.org/1999/xlink" width="7px" height="8px" xmlns="http://www.w3.org/2000/svg">
  <g transform="matrix(1 0 0 1 -602 -22 )">
    <path d="M 2.87534246575342 0.115068493150659  C 2.93949771689495 0.0579908675799174  3.01438356164385 0.0294520547945467  3.10000000000002 0.0294520547945467  C 3.18561643835619 0.0294520547945467  3.26050228310498 0.0579908675799174  3.32465753424663 0.115068493150659  L 6.86712328767123 3.76438356164385  C 6.93127853881276 3.82853881278538  6.96335616438364 3.90707762557076  6.96335616438364 4  C 6.96335616438364 4.09292237442924  6.93127853881276 4.17146118721462  6.86712328767123 4.23561643835615  L 3.32465753424663 7.88493150684934  C 3.26050228310498 7.94200913242008  3.18561643835619 7.97054794520545  3.10000000000002 7.97054794520545  C 3.01438356164385 7.97054794520545  2.93949771689495 7.93847031963469  2.87534246575342 7.87431506849316  C 2.81118721461189 7.81015981735158  2.77910958904113 7.73527397260273  2.77910958904113 7.64965753424656  C 2.77910958904113 7.56404109589039  2.81118721461189 7.48915525114154  2.87534246575342 7.42500000000001  L 6.2143835616439 4.00034246575342  L 2.87534246575342 0.575684931506828  C 2.81118721461189 0.5115296803653  2.77910958904113 0.436643835616451  2.77910958904113 0.351027397260282  C 2.77910958904113 0.265410958904113  2.81118721461189 0.186872146118731  2.87534246575342 0.115410958904135  Z M 0.135616438356124 0.115068493150659  C 0.199771689497766 0.0579908675799174  0.274657534246558 0.0294520547945467  0.360273972602727 0.0294520547945467  C 0.445890410958896 0.0294520547945467  0.520776255707801 0.0579908675799174  0.58493150684933 0.115068493150659  L 4.12739726027394 3.76438356164385  C 4.19155251141558 3.82853881278538  4.22363013698634 3.90707762557076  4.22363013698634 4  C 4.22363013698634 4.09292237442924  4.19155251141558 4.17146118721462  4.12739726027394 4.23561643835615  L 0.58493150684933 7.88493150684934  C 0.520776255707801 7.94200913242008  0.445890410958896 7.97054794520545  0.360273972602727 7.97054794520545  C 0.274657534246558 7.97054794520545  0.199771689497766 7.93847031963469  0.135616438356124 7.87431506849316  C 0.0714611872145952 7.81015981735158  0.0393835616438309 7.73527397260273  0.0393835616438309 7.64965753424656  C 0.0393835616438309 7.56404109589039  0.0714611872145952 7.48915525114154  0.135616438356124 7.42500000000001  L 3.4746575342466 4.00034246575342  L 0.135616438356124 0.575684931506828  C 0.0714611872145952 0.5115296803653  0.0393835616438309 0.436643835616451  0.0393835616438309 0.351027397260282  C 0.0393835616438309 0.265410958904113  0.0714611872145952 0.186872146118731  0.135616438356124 0.115410958904135  Z " fill-rule="nonzero" fill="#409eff" stroke="none" transform="matrix(1 0 0 1 602 22 )" />
  </g>
</svg>