<?xml version="1.0" encoding="utf-8"?>
<svg version="1.1" xmlns:xlink="http://www.w3.org/1999/xlink" width="5px" height="8px" xmlns="http://www.w3.org/2000/svg">
  <g transform="matrix(1 0 0 1 -579 -22 )">
    <path d="M 0.142465753424659 0.115068493150687  C 0.0783105022831023 0.186529680365297  0.0462328767123381 0.265068493150679  0.0462328767123381 0.350684931506848  C 0.0462328767123381 0.436301369863017  0.0783105022831023 0.511187214611866  0.142465753424659 0.575342465753423  L 3.48150684931505 4  L 0.142465753424659 7.42465753424658  C 0.0783105022831023 7.48881278538813  0.0462328767123381 7.56369863013698  0.0462328767123381 7.64931506849315  C 0.0462328767123381 7.73493150684932  0.0783105022831023 7.80981735159817  0.142465753424659 7.87397260273973  C 0.206621004566216 7.93812785388128  0.281506849315065 7.97020547945205  0.367123287671234 7.97020547945205  C 0.452739726027403 7.97020547945205  0.527625570776252 7.94166666666666  0.591780821917808 7.88458904109589  L 4.13424657534244 4.23527397260274  C 4.198401826484 4.17111872146118  4.23047945205479 4.0925799086758  4.23047945205479 3.99965753424658  C 4.23047945205479 3.90673515981734  4.198401826484 3.82819634703196  4.13424657534244 3.76404109589041  L 0.591780821917808 0.114726027397253  C 0.527625570776252 0.0576484018264836  0.452739726027403 0.0291095890410986  0.367123287671234 0.0291095890410986  C 0.281506849315065 0.0291095890410986  0.206621004566216 0.0576484018264836  0.142465753424659 0.114726027397253  Z " fill-rule="nonzero" fill="#606266" stroke="none" transform="matrix(1 0 0 1 579 22 )" />
  </g>
</svg>