<?xml version="1.0" encoding="utf-8"?>
<svg version="1.1" xmlns:xlink="http://www.w3.org/1999/xlink" width="9px" height="9px" xmlns="http://www.w3.org/2000/svg">
  <g transform="matrix(1 0 0 1 -320 -77 )">
    <path d="M 8.91482257579787 4.5  C 8.91482257579787 2.06202333111702  6.93797054122339 0.0851712965425691  4.49999387234044 0.0851712965425691  C 2.06201720345746 0.0851712965425691  0.0851651688829804 2.06202333111702  0.0851651688829804 4.5  C 0.0851651688829804 6.93797666888298  2.06201720345746 8.91481646010641  4.49999387234044 8.91481646010641  C 6.93797054122339 8.91481646010641  8.91482257579787 6.93797666888298  8.91482257579787 4.5  Z M 4.84733148271278 4.5  L 6.59249448271277 6.24535894148937  C 6.68190994946809 6.33457845478722  6.68190994946809 6.48078332313833  6.59249448271277 6.57002733510637  L 6.56999670877659 6.59261082446807  C 6.48077719547871 6.68192830851063  6.33456008377661 6.68192830851063  6.24534057047873 6.59261082446807  L 4.49999387234044 4.84734985372342  L 2.75463493085107 6.59259858111704  C 2.66541541755319 6.68191606515956  2.51919830585106 6.68191606515956  2.42997879255319 6.59259858111704  L 2.40729732047873 6.57001507978725  C 2.31806556382978 6.48077107978725  2.31806556382978 6.3345661994681  2.40729732047873 6.24534669813829  L 4.15377074202127 4.49998775664892  L 2.40729732047873 2.75464105851063  C 2.31806556382978 2.6654093018617  2.31806556382978 2.51920443351065  2.40729732047873 2.42997266489363  L 2.42997879255319 2.40729119281917  C 2.51919830585106 2.31807167952127  2.66541541755319 2.31807167952127  2.75463493085107 2.40729119281917  L 4.49999387234044 4.15367888696807  L 6.24535282579788 2.40833218882977  C 6.33457233909576 2.31901470478721  6.48078945079789 2.31901470478721  6.57000896409573 2.40833218882977  L 6.59250672606385 2.43091569015957  C 6.68192219281914 2.52014744680849  6.68192219281914 2.6663523151596  6.59250672606385 2.75558407180853  L 4.84733148271278 4.5  Z " fill-rule="nonzero" fill="#c0c4cc" stroke="none" transform="matrix(1 0 0 1 320 77 )" />
  </g>
</svg>