<?xml version="1.0" encoding="utf-8"?>
<svg version="1.1" xmlns:xlink="http://www.w3.org/1999/xlink" width="14px" height="14px" xmlns="http://www.w3.org/2000/svg">
  <g transform="matrix(1 0 0 1 -833 -205 )">
    <path d="M 4.88707386363637 8.39751420454542  L 6.30099431818178 7  L 4.88707386363637 5.6014914772727  C 4.79393939393935 5.49775094696969  4.7473721590909 5.37859848484851  4.7473721590909 5.24403409090905  C 4.7473721590909 5.10946969696971  4.79659090909092 4.99296875000005  4.89502840909086 4.89453125  C 4.9934659090909 4.79609374999995  5.10996685606062 4.74687500000005  5.24453125000002 4.74687500000005  C 5.37909564393942 4.74687500000005  5.4982481060606 4.79344223484844  5.60198863636356 4.88657670454546  L 7.00049715909086 6.30049715909092  L 8.39900568181815 4.88657670454546  C 8.5441761363636 4.75201231060612  8.70724431818178 4.71058238636363  8.88821022727268 4.76228693181815  C 9.06917613636358 4.81399147727274  9.1856770833333 4.93049242424246  9.23771306818185 5.11178977272726  C 9.28974905303039 5.29308712121212  9.2483191287879 5.4561553030303  9.1134232954546 5.60099431818185  L 7.69950284090908 6.99950284090914  L 9.1134232954546 8.39801136363639  C 9.24798768939388 8.54318181818178  9.28941761363637 8.70624999999995  9.23771306818185 8.88721590909086  C 9.18600852272732 9.06818181818181  9.0695075757576 9.18468276515154  8.88821022727268 9.23671875000002  C 8.70691287878788 9.28875473484851  8.5438446969697 9.24732481060607  8.39900568181815 9.11242897727271  L 7.00049715909086 7.69850852272725  L 5.60198863636356 9.11242897727271  C 5.4982481060606 9.20556344696968  5.37909564393942 9.25213068181819  5.24453125000002 9.25213068181819  C 5.10996685606062 9.25213068181819  4.9934659090909 9.20291193181822  4.89502840909086 9.10447443181818  C 4.79659090909092 9.00603693181819  4.7473721590909 8.88953598484846  4.7473721590909 8.75497159090912  C 4.7473721590909 8.62040719696967  4.79393939393935 8.50125473484849  4.88707386363637 8.39751420454542  Z M 2.78210227272734 11.2178977272727  C 3.90601325757575 12.3414772727273  5.31197916666667 12.9241477272727  7 12.9659090909091  C 8.68835227272734 12.9244791666667  10.0943181818182 12.3418087121212  11.2178977272727 11.2178977272727  C 12.3414772727273 10.0939867424242  12.9241477272727 8.68802083333333  12.9659090909091 7  C 12.9244791666666 5.31164772727271  12.3418087121212 3.90568181818185  11.2178977272727 2.78210227272729  C 10.0939867424242 1.65852272727273  8.68802083333333 1.07585227272727  7 1.03409090909088  C 5.31164772727266 1.07552083333331  3.90568181818185 1.65819128787876  2.78210227272734 2.78210227272729  C 1.65852272727273 3.90601325757575  1.07585227272727 5.31197916666667  1.03409090909088 7  C 1.07552083333337 8.68835227272729  1.65819128787871 10.0943181818182  2.78210227272734 11.2178977272727  Z M 11.9174005681818 11.9174005681818  C 10.6072206439394 13.2275804924242  8.96808712121208 13.9085227272727  7 13.9602272727273  C 5.03191287878792 13.9085227272727  3.3927793560606 13.2275804924242  2.08259943181815 11.9174005681818  C 0.772419507575705 10.6072206439394  0.0914772727272748 8.96808712121208  0.0397727272727479 7  C 0.0914772727272748 5.03191287878792  0.772419507575705 3.3927793560606  2.08259943181815 2.08259943181815  C 3.3927793560606 0.772419507575762  5.03191287878792 0.0914772727272748  7 0.0397727272727479  C 8.96808712121208 0.0914772727272748  10.6072206439394 0.772419507575762  11.9174005681818 2.08259943181815  C 13.2275804924243 3.3927793560606  13.9085227272727 5.03191287878792  13.9602272727273 7  C 13.9085227272727 8.96808712121208  13.2275804924243 10.6072206439394  11.9174005681818 11.9174005681818  Z " fill-rule="nonzero" fill="#c0c4cc" stroke="none" transform="matrix(1 0 0 1 833 205 )" />
  </g>
</svg>