<?xml version="1.0" encoding="utf-8"?>
<svg version="1.1" xmlns:xlink="http://www.w3.org/1999/xlink" width="15px" height="18px" xmlns="http://www.w3.org/2000/svg">
  <g transform="matrix(1 0 0 1 -1330 -24 )">
    <path d="M 14.8164857142857 16.7172685714286  L 8.42837142857138 9.05142857142857  L 14.8164857142857 1.38548571428571  C 15.0611142857143 1.0920342857143  15.0611142857143 0.616320000000005  14.8164857142857 0.322868571428568  C 14.5718571428572 0.0294171428571516  14.1754285714286 0.0294171428571516  13.9310571428572 0.322868571428568  L 7.5428571428572 7.98881142857146  L 1.15457142857144 0.322868571428568  C 1.03714493329153 0.181956777092627  0.877880427921127 0.102793355337791  0.71181428571424 0.102793355337791  C 0.365999446450019 0.102793355337791  0.0856611294481127 0.439199335740103  0.0856611294481127 0.854177142857152  C 0.0856611294481127 1.05345651350538  0.151630647577122 1.24457391994978  0.26905714285715 1.38548571428571  L 6.65734285714291 9.05142857142857  L 0.26905714285715 16.7172685714286  C 0.151633338200668 16.8581612003818  0.0856642151189817 17.0492621783607  0.0856642151189817 17.2485257142857  C 0.0856642151189817 17.4477892502108  0.151633338200668 17.6388902281896  0.26905714285715 17.7797828571429  C 0.386459989698324 17.9207481095921  0.545733357982726 17.9999484469042  0.71181428571424 17.9999484469042  C 0.877895213445868 17.9999484469042  1.03716858173027 17.9207481095921  1.15457142857144 17.7797828571429  L 7.5428571428572 10.1140457142857  L 13.9310571428572 17.7797828571429  C 14.0484453538411 17.9207418587502  14.2077045312276 17.9999396363935  14.3737714285714 17.9999396363935  C 14.5398383259152 17.9999396363935  14.6990975033017 17.9207418587502  14.8164857142857 17.7797828571429  C 14.9339515489585 17.6389170039621  14.9999496969946 17.4478059910983  14.9999496969946 17.2485257142857  C 14.9999496969946 17.0492454374731  14.9339515489585 16.8581344246094  14.8164857142857 16.7172685714286  Z " fill-rule="nonzero" fill="#606266" stroke="none" transform="matrix(1 0 0 1 1330 24 )" />
  </g>
</svg>